<svg width="171" height="27" viewBox="0 0 171 27" fill="none" xmlns="http://www.w3.org/2000/svg">
  <path d="M20.0082 10.1218V17.1157H19.7441C19.6306 17.1114 19.1722 17.1114 19.0587 17.1157C14.538 17.2947 10.9275 21.0166 10.9275 25.5809C10.9275 25.9346 10.9493 26.2817 10.9908 26.6244H3.76983C3.76983 26.6244 3.7611 26.6156 3.75891 26.6091C3.73272 26.2424 3.71962 25.8691 3.71962 25.4958C3.71962 22.4572 4.6015 19.6239 6.12515 17.238C5.99854 17.2009 5.87412 17.1594 5.75188 17.1136C5.01843 16.8538 4.32864 16.498 3.69779 16.0614C2.70895 15.376 1.86636 14.4941 1.22896 13.4703C0.60684 12.4706 0.178996 11.3355 0 10.1196H20.0082V10.1218Z" fill="#7DA4D6" />
  <path d="M31.2696 10.9473C30.2283 10.1527 29.1347 9.61575 28.8662 9.47605C29.1544 8.99582 29.377 8.47193 29.5254 7.91748C29.9882 8.53742 30.6103 9.47606 31.2696 10.9473Z" fill="#FBB416" />
  <path d="M29.5715 4.85687C28.921 2.11082 26.4544 0.0698242 23.5118 0.0698242H19.4233C17.6617 0.0698242 16.0246 0.604628 14.6668 1.52144C14.4726 1.65241 14.2848 1.79211 14.1036 1.93837C12.3224 3.36597 11.1262 5.49645 10.9385 7.90853H22.5383C24.4439 7.90853 26.2601 8.36257 27.93 9.04799C28.2487 9.17896 28.5608 9.32085 28.8686 9.47366C29.1568 8.99342 29.3794 8.46953 29.5279 7.91508C29.5279 7.9129 29.5606 7.79284 29.5737 7.7339C29.6828 7.27332 29.7418 6.7909 29.7418 6.29539C29.7418 5.79988 29.6828 5.31746 29.5737 4.85687H29.5715ZM26.6377 6.31285C26.2361 6.31285 25.3979 5.12755 25.3979 4.7259C25.3979 4.32425 27.3646 5.02932 27.3646 5.58595C27.3646 5.9876 27.0394 6.31066 26.6399 6.31066L26.6377 6.31285Z" fill="#7DA4D6" />
</svg>